# xmcd CD database file
#
# Track frame offsets:
#	182
#	22032
#	31792
#	57972
#	74595
#	81902
#	104465
#	126325
#	136815
#	157727
#	184005
#	205900
#
# Disc length: 2867 seconds
#
# Revision: 0
# Processed by: cddbd v1.4PL0 Copyright (c) Steve Scherf et al.
# Submitted via: Feurio! 1.65 - http://www.feurio.com
#
DISCID=a20b310c
DTITLE=Cuby and Blizzards - The Legends
DYEAR=1900
DGENRE=
TTITLE0=Cuby  - Never get Out Off These Blues Alive
TTITLE1=Cuby  - Perfection
TTITLE2=Cuby  - Kid Blue
TTITLE3=Cuby  - Perfect Song
TTITLE4=Eelco Gelling Blues Connection - Instrumental Part 1
TTITLE5=Eelco Gelling Blues Connection - Feel So Bad
TTITLE6=Eelco Gelling Blues Connection - Little Red Rooster
TTITLE7=Eelco Gelling Blues Connection - Instrumental Part 2 and 3
TTITLE8=Herman Brood The Flash and Dance Band - Showbiz Blues
TTITLE9=Herman Brood The Flash and Dance Band - Lepers and The Dead
TTITLE10=Herman Brood The Flash and Dance Band - Wobbe
TTITLE11=Herman Brood The Flash and Dance Band - Heartbreak Hotel
EXTD=Cuby - Harry Muskee - Eelco Gelling - Blues Connection - Herman Brood - 
EXTD=The Flash and Dance Band
EXTT0=
EXTT1=
EXTT2=
EXTT3=
EXTT4=
EXTT5=
EXTT6=
EXTT7=
EXTT8=
EXTT9=
EXTT10=
EXTT11=
PLAYORDER=
